<svg width="139" height="46" viewBox="0 0 139 46" fill="none" xmlns="http://www.w3.org/2000/svg">
<g filter="url(#filter0_d_5_7449)">
<path d="M115.919 1.18738H22.0811C11.6156 1.18738 3.13165 9.69246 3.13165 20.184C3.13165 30.6755 11.6156 39.1806 22.0811 39.1806H115.919C126.384 39.1806 134.868 30.6755 134.868 20.184C134.868 9.69246 126.384 1.18738 115.919 1.18738Z" fill="white"/>
</g>
<path d="M59.3153 16.3296H62.8147L55.5796 27.0952H54.4379L47.0322 16.3296H50.571L55.0241 23.0959L59.3153 16.3296Z" fill="#00000F"/>
<path d="M77.8448 21.9821L66.0079 21.9908C66.0079 22.9468 66.7953 23.8721 67.8277 24.3106C69.2843 24.9333 70.1417 24.9859 71.817 24.9859C74.0217 24.9859 75.8064 24.5649 77.5955 23.666V25.8849C76.4319 26.6698 74.2185 27.3101 71.2833 27.3101C69.3149 27.3101 67.5914 27.1039 66.3754 26.5339C65.1812 25.977 64.5775 25.5428 63.9476 24.6175C63.3527 23.7405 62.9722 22.7188 62.9722 21.6049C62.9722 19.9386 63.6502 18.6712 64.8925 17.5618C66.2835 16.3252 68.3351 15.9656 70.8066 15.9656C73.278 15.9656 74.9621 16.6497 76.2394 17.8293C77.5605 19.0484 77.8404 20.4516 77.8404 21.7014V21.9733L77.8448 21.9821ZM66.2791 20.0175L74.7172 20.0087C74.5422 19.3509 74.0567 18.8291 73.3786 18.4388C72.7006 18.0529 71.8476 17.781 70.7016 17.781C69.5555 17.781 68.6719 17.9696 67.8495 18.3862C67.1103 18.7633 66.5416 19.3509 66.2748 20.0175" fill="#00000F"/>
<path d="M83.435 16.3296V17.6802C84.9441 16.6234 86.7945 16.0884 88.6448 16.0884C89.6728 16.0884 90.6264 16.2638 91.5143 16.6058C92.398 16.9566 92.9535 17.4039 93.3822 18.031C93.8327 18.7019 94.0733 19.5965 94.0733 20.9033V27.0557H91.0025V21.412C91.0025 20.3113 90.5782 19.522 90.0664 19.0571C89.5547 18.5835 88.7017 18.281 87.49 18.281C85.9458 18.281 84.5548 18.8598 83.4394 19.8728V27.0601H80.3074V16.3252H83.4394L83.435 16.3296Z" fill="#00000F"/>
<path d="M95.3507 18.044L100.683 12.9353H100.867V16.0137H105.044V18.4299H100.867V22.7888C100.867 24.1438 101.685 24.8192 102.993 24.8192C103.929 24.8192 104.668 24.5955 105.573 23.986V26.4855C104.489 27.0249 103.688 27.2398 102.297 27.2398C101.033 27.2398 100.399 27.0337 99.4669 26.4066C99.1738 26.218 98.9289 25.9374 98.7364 25.705C98.5439 25.4725 98.3602 25.1173 98.2333 24.7402C98.1065 24.3631 98.0409 23.6352 98.0409 22.5608V18.4299H95.3463V18.0397L95.3507 18.044Z" fill="#00000F"/>
<path d="M45.9779 24.1745V26.7443C44.2545 27.1477 42.566 27.3494 40.9212 27.3494C38.2048 27.3494 36.2014 26.8451 34.666 25.8321C33.1306 24.8236 32.4263 23.4641 32.4263 21.7671C32.4263 20.07 33.0825 18.6229 34.5741 17.5661C36.0658 16.5136 37.9992 16.0356 40.5669 16.0356C41.4636 16.0356 42.2641 16.0883 42.9728 16.1979C43.6858 16.3075 44.5607 16.5049 45.6061 16.7987V19.421C43.8608 18.7238 42.4435 18.4519 40.7638 18.4519C39.3246 18.4519 37.7892 18.8071 36.91 19.3684C35.9302 19.9955 35.5933 20.89 35.5933 21.6969C35.5933 22.6397 36.1445 23.451 37.0456 24.0211C38.0079 24.6262 39.8145 24.9069 41.4112 24.9069C42.7409 24.9025 44.2588 24.6613 45.9736 24.1745" fill="#4291E9"/>
<defs>
<filter id="filter0_d_5_7449" x="0.213273" y="0.598264" width="138.733" height="44.9901" filterUnits="userSpaceOnUse" color-interpolation-filters="sRGB">
<feFlood flood-opacity="0" result="BackgroundImageFix"/>
<feColorMatrix in="SourceAlpha" type="matrix" values="0 0 0 0 0 0 0 0 0 0 0 0 0 0 0 0 0 0 127 0" result="hardAlpha"/>
<feOffset dx="0.580051" dy="2.90932"/>
<feGaussianBlur stdDeviation="1.74922"/>
<feColorMatrix type="matrix" values="0 0 0 0 0.298039 0 0 0 0 0.219608 0 0 0 0 0.619608 0 0 0 0.75 0"/>
<feBlend mode="normal" in2="BackgroundImageFix" result="effect1_dropShadow_5_7449"/>
<feBlend mode="normal" in="SourceGraphic" in2="effect1_dropShadow_5_7449" result="shape"/>
</filter>
</defs>
</svg>
